{"title":"BBC The Hunt 2015 S01 BluRay 1080p x264 DTS HD MA 5 1 HDChina","uid":15574571,"size":51155487183,"categoryP":"video","categoryS":"hd___tv_shows","magnet":"?xt=urn:btih:9160b31900c7f2975954a7622a6b3fef9f9b5ba1&amp;dn=BBC+The+Hunt+2015+S01+BluRay+1080p+x264+DTS+HD+MA+5+1+HDChina&amp;tr=udp%3A%2F%2Ftracker.leechers-paradise.org%3A6969&amp;tr=udp%3A%2F%2Fzer0day.ch%3A1337&amp;tr=udp%3A%2F%2Fopen.demonii.com%3A1337&amp;tr=udp%3A%2F%2Ftracker.coppersurfer.tk%3A6969&amp;tr=udp%3A%2F%2Fexodus.desync.com%3A6969","seeders":6,"leechers":14,"uploader":"htpbor","files":10,"time":1471308725,"description":"The Hunt is a 2015 British nature documentary series made for BBC television, first shown in the UK on BBC One and BBC One HD on 1 November 2015. It is narrated by David Attenborough.[1] The series looks in detail at the fascinating relationship between predators and their prey. Rather than concentrating on ‘the blood and guts’ of predation, it also focuses with unprecedented detail at the strategies predators use to catch their food and prey use to escape death.\r\n\r\nEach episode will be based in one of the planet’s key habitats – each of which presents the predators and their prey with key challenges. The seventh episode will take a fresh look at the state of our planet through the eyes of the top predators and the scientists and conservationists who are fighting to protect them.\r\n\r\nSample info:\r\nDuration: 00:57:02.05, start: 0.000000, bitrate: 19694 kb/s\r\nStream #0:0(eng): Video: h264 (High), yuv420p, 1920x1080, SAR 1:1 DAR 16:9, 25 fps, 25 tbr, 1k tbn, 50 tbc (default)\r\ntitle\t: Encode by CK @ HDChina\r\nBPS\t: 17581516\r\nBPS-eng\t: 17581516\r\nDURATION\t: 00:57:02.000000000\r\nDURATION-eng\t: 00:57:02.000000000\r\nNUMBER_OF_FRAMES: 85550\r\nNUMBER_OF_FRAMES-eng: 85550\r\nNUMBER_OF_BYTES : 7520493693\r\nNUMBER_OF_BYTES-eng: 7520493693\r\n_STATISTICS_WRITING_APP: mkvmerge v7.0.0 ('Where We Going') 64bit built on Jun\t9 2014 15:16:27\r\n_STATISTICS_WRITING_APP-eng: mkvmerge v7.0.0 ('Where We Going') 64bit built on Jun\t9 2014 15:16:27\r\n_STATISTICS_WRITING_DATE_UTC: 2016-01-10 12:12:04\r\n_STATISTICS_WRITING_DATE_UTC-eng: 2016-01-10 12:12:04\r\n_STATISTICS_TAGS: BPS DURATION NUMBER_OF_FRAMES NUMBER_OF_BYTES\r\n_STATISTICS_TAGS-eng: BPS DURATION NUMBER_OF_FRAMES NUMBER_OF_BYTES\r\nStream #0:1(eng): Audio: dts (DTS-HD MA), 48000 Hz, 5.1(side), fltp, 1536 kb/s (default)\r\ntitle\t: English DTS-HD MA 5.1 @ 2193 kbps\r\nBPS\t: 2100486\r\nBPS-eng\t: 2100486\r\nDURATION\t: 00:57:02.048000000\r\nDURATION-eng\t: 00:57:02.048000000\r\nNUMBER_OF_FRAMES: 320817\r\nNUMBER_OF_FRAMES-eng: 320817\r\nNUMBER_OF_BYTES : 898495628\r\nNUMBER_OF_BYTES-eng: 898495628\r\n_STATISTICS_WRITING_APP: mkvmerge v7.0.0 ('Where We Going') 64bit built on Jun\t9 2014 15:16:27\r\n_STATISTICS_WRITING_APP-eng: mkvmerge v7.0.0 ('Where We Going') 64bit built on Jun\t9 2014 15:16:27\r\n_STATISTICS_WRITING_DATE_UTC: 2016-01-10 12:12:04\r\n_STATISTICS_WRITING_DATE_UTC-eng: 2016-01-10 12:12:04\r\n_STATISTICS_TAGS: BPS DURATION NUMBER_OF_FRAMES NUMBER_OF_BYTES\r\n_STATISTICS_TAGS-eng: BPS DURATION NUMBER_OF_FRAMES NUMBER_OF_BYTES\r\nStream #0:2(eng): Subtitle: hdmv_pgs_subtitle (default)\r\nBPS\t: 9131\r\nBPS-eng\t: 9131\r\nDURATION\t: 00:55:45.680000000\r\nDURATION-eng\t: 00:55:45.680000000\r\nNUMBER_OF_FRAMES: 996\r\nNUMBER_OF_FRAMES-eng: 996\r\nNUMBER_OF_BYTES : 3818709\r\nNUMBER_OF_BYTES-eng: 3818709\r\n_STATISTICS_WRITING_APP: mkvmerge v7.0.0 ('Where We Going') 64bit built on Jun\t9 2014 15:16:27\r\n_STATISTICS_WRITING_APP-eng: mkvmerge v7.0.0 ('Where We Going') 64bit built on Jun\t9 2014 15:16:27\r\n_STATISTICS_WRITING_DATE_UTC: 2016-01-10 12:12:04\r\n_STATISTICS_WRITING_DATE_UTC-eng: 2016-01-10 12:12:04\r\n_STATISTICS_TAGS: BPS DURATION NUMBER_OF_FRAMES NUMBER_OF_BYTES\r\n_STATISTICS_TAGS-eng: BPS DURATION NUMBER_OF_FRAMES NUMBER_OF_BYTES","torrent":{"xt":"urn:btih:9160b31900c7f2975954a7622a6b3fef9f9b5ba1","amp;dn":"BBC+The+Hunt+2015+S01+BluRay+1080p+x264+DTS+HD+MA+5+1+HDChina","amp;tr":["udp%3A%2F%2Ftracker.leechers-paradise.org%3A6969","udp%3A%2F%2Fzer0day.ch%3A1337","udp%3A%2F%2Fopen.demonii.com%3A1337","udp%3A%2F%2Ftracker.coppersurfer.tk%3A6969","udp%3A%2F%2Fexodus.desync.com%3A6969"],"infoHash":"9160b31900c7f2975954a7622a6b3fef9f9b5ba1","infoHashBuffer":{"type":"Buffer","data":[145,96,179,25,0,199,242,151,89,84,167,98,42,107,63,239,159,155,91,161]},"announce":[],"urlList":[]}}